<mxfile host="Electron" agent="Mozilla/5.0 (Macintosh; Intel Mac OS X 10_15_7) AppleWebKit/537.36 (KHTML, like Gecko) draw.io/26.0.16 Chrome/132.0.6834.196 Electron/34.2.0 Safari/537.36" version="26.0.16">
  <diagram name="Page-1" id="L8IHgw0meNaob_PXdwXo">
    <mxGraphModel dx="954" dy="622" grid="1" gridSize="10" guides="1" tooltips="1" connect="1" arrows="1" fold="1" page="1" pageScale="1" pageWidth="3300" pageHeight="2339" math="0" shadow="0">
      <root>
        <mxCell id="0" />
        <mxCell id="1" parent="0" />
        <mxCell id="eFsrurNrGwDv3tq9KLRQ-1" value="User Management System - Level 1 DFD" style="text;html=1;strokeColor=none;fillColor=none;align=center;verticalAlign=middle;whiteSpace=wrap;rounded=0;fontSize=16;fontStyle=1" vertex="1" parent="1">
          <mxGeometry x="185" y="50" width="500" height="30" as="geometry" />
        </mxCell>
        <mxCell id="eFsrurNrGwDv3tq9KLRQ-2" value="End User" style="html=1;dashed=0;whitespace=wrap;shape=mxgraph.dfd.externalEntity;fillColor=#f5f5f5;strokeColor=#666666;fontColor=#333333;" vertex="1" parent="1">
          <mxGeometry x="20" y="230" width="100" height="60" as="geometry" />
        </mxCell>
        <mxCell id="eFsrurNrGwDv3tq9KLRQ-3" value="1" style="text;html=1;align=center;verticalAlign=middle;resizable=0;points=[];autosize=1;strokeColor=none;fillColor=none;" vertex="1" parent="eFsrurNrGwDv3tq9KLRQ-2">
          <mxGeometry x="40" width="20" height="20" as="geometry" />
        </mxCell>
        <mxCell id="eFsrurNrGwDv3tq9KLRQ-4" value="System&#xa;Administrator" style="html=1;dashed=0;whitespace=wrap;shape=mxgraph.dfd.externalEntity;fillColor=#f5f5f5;strokeColor=#666666;fontColor=#333333;" vertex="1" parent="1">
          <mxGeometry x="20" y="420" width="100" height="60" as="geometry" />
        </mxCell>
        <mxCell id="eFsrurNrGwDv3tq9KLRQ-5" value="2" style="text;html=1;align=center;verticalAlign=middle;resizable=0;points=[];autosize=1;strokeColor=none;fillColor=none;" vertex="1" parent="eFsrurNrGwDv3tq9KLRQ-4">
          <mxGeometry x="40" width="20" height="20" as="geometry" />
        </mxCell>
        <mxCell id="eFsrurNrGwDv3tq9KLRQ-6" value="Email&#xa;Service" style="html=1;dashed=0;whitespace=wrap;shape=mxgraph.dfd.externalEntity;fillColor=#f5f5f5;strokeColor=#666666;fontColor=#333333;" vertex="1" parent="1">
          <mxGeometry x="680" y="230" width="100" height="60" as="geometry" />
        </mxCell>
        <mxCell id="eFsrurNrGwDv3tq9KLRQ-7" value="3" style="text;html=1;align=center;verticalAlign=middle;resizable=0;points=[];autosize=1;strokeColor=none;fillColor=none;" vertex="1" parent="eFsrurNrGwDv3tq9KLRQ-6">
          <mxGeometry x="40" width="20" height="20" as="geometry" />
        </mxCell>
        <mxCell id="eFsrurNrGwDv3tq9KLRQ-8" value="Security&#xa;Auditor" style="html=1;dashed=0;whitespace=wrap;shape=mxgraph.dfd.externalEntity;fillColor=#f5f5f5;strokeColor=#666666;fontColor=#333333;" vertex="1" parent="1">
          <mxGeometry x="680" y="430" width="100" height="60" as="geometry" />
        </mxCell>
        <mxCell id="eFsrurNrGwDv3tq9KLRQ-9" value="4" style="text;html=1;align=center;verticalAlign=middle;resizable=0;points=[];autosize=1;strokeColor=none;fillColor=none;" vertex="1" parent="eFsrurNrGwDv3tq9KLRQ-8">
          <mxGeometry x="40" width="20" height="20" as="geometry" />
        </mxCell>
        <mxCell id="eFsrurNrGwDv3tq9KLRQ-10" value="1.0&#xa;User&#xa;Registration&#xa;&amp; Login" style="shape=ellipse;html=1;dashed=0;whitespace=wrap;aspect=fixed;perimeter=ellipsePerimeter;fillColor=#d5e8d4;strokeColor=#82b366;" vertex="1" parent="1">
          <mxGeometry x="260" y="220" width="80" height="80" as="geometry" />
        </mxCell>
        <mxCell id="eFsrurNrGwDv3tq9KLRQ-11" value="2.0&#xa;Manage&#xa;User&#xa;Profiles" style="shape=ellipse;html=1;dashed=0;whitespace=wrap;aspect=fixed;perimeter=ellipsePerimeter;fillColor=#d5e8d4;strokeColor=#82b366;" vertex="1" parent="1">
          <mxGeometry x="480" y="210" width="80" height="80" as="geometry" />
        </mxCell>
        <mxCell id="eFsrurNrGwDv3tq9KLRQ-12" value="3.0&#xa;Manage&#xa;Access&#xa;Control" style="shape=ellipse;html=1;dashed=0;whitespace=wrap;aspect=fixed;perimeter=ellipsePerimeter;fillColor=#d5e8d4;strokeColor=#82b366;" vertex="1" parent="1">
          <mxGeometry x="480" y="490" width="80" height="80" as="geometry" />
        </mxCell>
        <mxCell id="eFsrurNrGwDv3tq9KLRQ-13" value="4.0&#xa;Audit&#xa;User&#xa;Activity" style="shape=ellipse;html=1;dashed=0;whitespace=wrap;aspect=fixed;perimeter=ellipsePerimeter;fillColor=#d5e8d4;strokeColor=#82b366;" vertex="1" parent="1">
          <mxGeometry x="300" y="490" width="80" height="80" as="geometry" />
        </mxCell>
        <mxCell id="eFsrurNrGwDv3tq9KLRQ-14" value="D1 User Accounts" style="html=1;dashed=0;whitespace=wrap;shape=mxgraph.dfd.dataStore;fillColor=#dae8fc;strokeColor=#6c8ebf;" vertex="1" parent="1">
          <mxGeometry x="340" y="140" width="180" height="40" as="geometry" />
        </mxCell>
        <mxCell id="eFsrurNrGwDv3tq9KLRQ-15" value="D2 User Profiles" style="html=1;dashed=0;whitespace=wrap;shape=mxgraph.dfd.dataStore;fillColor=#dae8fc;strokeColor=#6c8ebf;" vertex="1" parent="1">
          <mxGeometry x="345" y="330" width="180" height="40" as="geometry" />
        </mxCell>
        <mxCell id="eFsrurNrGwDv3tq9KLRQ-16" value="D3 Access Control Database" style="html=1;dashed=0;whitespace=wrap;shape=mxgraph.dfd.dataStore;fillColor=#dae8fc;strokeColor=#6c8ebf;" vertex="1" parent="1">
          <mxGeometry x="330" y="690" width="180" height="40" as="geometry" />
        </mxCell>
        <mxCell id="eFsrurNrGwDv3tq9KLRQ-17" value="Login Credentials" style="endArrow=classic;html=1;rounded=0;exitX=1;exitY=0.5;exitDx=0;exitDy=0;exitPerimeter=0;entryX=0;entryY=0.5;entryDx=0;entryDy=0;" edge="1" parent="1" source="eFsrurNrGwDv3tq9KLRQ-2" target="eFsrurNrGwDv3tq9KLRQ-10">
          <mxGeometry width="50" height="50" relative="1" as="geometry">
            <mxPoint x="410" y="440" as="sourcePoint" />
            <mxPoint x="460" y="390" as="targetPoint" />
          </mxGeometry>
        </mxCell>
        <mxCell id="eFsrurNrGwDv3tq9KLRQ-18" value="Account Info" style="endArrow=classic;html=1;rounded=0;exitX=0.5;exitY=0;exitDx=0;exitDy=0;entryX=0.17;entryY=1;entryDx=0;entryDy=0;entryPerimeter=0;" edge="1" parent="1" source="eFsrurNrGwDv3tq9KLRQ-10" target="eFsrurNrGwDv3tq9KLRQ-14">
          <mxGeometry width="50" height="50" relative="1" as="geometry">
            <mxPoint x="410" y="440" as="sourcePoint" />
            <mxPoint x="460" y="390" as="targetPoint" />
          </mxGeometry>
        </mxCell>
        <mxCell id="eFsrurNrGwDv3tq9KLRQ-19" value="Registration Data" style="endArrow=classic;html=1;rounded=0;exitX=1;exitY=0.5;exitDx=0;exitDy=0;entryX=0;entryY=0.5;entryDx=0;entryDy=0;" edge="1" parent="1" source="eFsrurNrGwDv3tq9KLRQ-10" target="eFsrurNrGwDv3tq9KLRQ-11">
          <mxGeometry width="50" height="50" relative="1" as="geometry">
            <mxPoint x="410" y="440" as="sourcePoint" />
            <mxPoint x="460" y="390" as="targetPoint" />
          </mxGeometry>
        </mxCell>
        <mxCell id="eFsrurNrGwDv3tq9KLRQ-20" value="Verification Email" style="endArrow=classic;html=1;rounded=0;exitX=1;exitY=0.5;exitDx=0;exitDy=0;entryX=0;entryY=0.5;entryDx=0;entryDy=0;entryPerimeter=0;" edge="1" parent="1" source="eFsrurNrGwDv3tq9KLRQ-11" target="eFsrurNrGwDv3tq9KLRQ-6">
          <mxGeometry width="50" height="50" relative="1" as="geometry">
            <mxPoint x="410" y="440" as="sourcePoint" />
            <mxPoint x="460" y="390" as="targetPoint" />
          </mxGeometry>
        </mxCell>
        <mxCell id="eFsrurNrGwDv3tq9KLRQ-21" value="Email Status" style="endArrow=classic;html=1;rounded=0;exitX=0;exitY=0.75;exitDx=0;exitDy=0;exitPerimeter=0;entryX=1;entryY=0.75;entryDx=0;entryDy=0;" edge="1" parent="1" source="eFsrurNrGwDv3tq9KLRQ-6" target="eFsrurNrGwDv3tq9KLRQ-11">
          <mxGeometry width="50" height="50" relative="1" as="geometry">
            <mxPoint x="410" y="440" as="sourcePoint" />
            <mxPoint x="460" y="390" as="targetPoint" />
          </mxGeometry>
        </mxCell>
        <mxCell id="eFsrurNrGwDv3tq9KLRQ-22" value="Profile Data" style="endArrow=classic;html=1;rounded=0;exitX=0.5;exitY=1;exitDx=0;exitDy=0;entryX=0.75;entryY=0;entryDx=0;entryDy=0;" edge="1" parent="1" source="eFsrurNrGwDv3tq9KLRQ-11" target="eFsrurNrGwDv3tq9KLRQ-15">
          <mxGeometry width="50" height="50" relative="1" as="geometry">
            <mxPoint x="410" y="440" as="sourcePoint" />
            <mxPoint x="460" y="390" as="targetPoint" />
          </mxGeometry>
        </mxCell>
        <mxCell id="eFsrurNrGwDv3tq9KLRQ-23" value="User Details" style="endArrow=classic;html=1;rounded=0;exitX=0.5;exitY=1;exitDx=0;exitDy=0;entryX=0.25;entryY=0;entryDx=0;entryDy=0;" edge="1" parent="1" source="eFsrurNrGwDv3tq9KLRQ-10" target="eFsrurNrGwDv3tq9KLRQ-15">
          <mxGeometry width="50" height="50" relative="1" as="geometry">
            <mxPoint x="410" y="440" as="sourcePoint" />
            <mxPoint x="460" y="390" as="targetPoint" />
          </mxGeometry>
        </mxCell>
        <mxCell id="eFsrurNrGwDv3tq9KLRQ-24" value="User Role Data" style="endArrow=classic;html=1;rounded=0;exitX=0.75;exitY=1;exitDx=0;exitDy=0;entryX=0.5;entryY=0;entryDx=0;entryDy=0;" edge="1" parent="1" source="eFsrurNrGwDv3tq9KLRQ-15" target="eFsrurNrGwDv3tq9KLRQ-12">
          <mxGeometry width="50" height="50" relative="1" as="geometry">
            <mxPoint x="410" y="440" as="sourcePoint" />
            <mxPoint x="460" y="390" as="targetPoint" />
          </mxGeometry>
        </mxCell>
        <mxCell id="eFsrurNrGwDv3tq9KLRQ-25" value="Permission Updates" style="endArrow=classic;html=1;rounded=0;exitX=0.5;exitY=1;exitDx=0;exitDy=0;entryX=0.75;entryY=0;entryDx=0;entryDy=0;" edge="1" parent="1" source="eFsrurNrGwDv3tq9KLRQ-12" target="eFsrurNrGwDv3tq9KLRQ-16">
          <mxGeometry width="50" height="50" relative="1" as="geometry">
            <mxPoint x="410" y="440" as="sourcePoint" />
            <mxPoint x="460" y="390" as="targetPoint" />
          </mxGeometry>
        </mxCell>
        <mxCell id="eFsrurNrGwDv3tq9KLRQ-26" value="Access Reports" style="endArrow=classic;html=1;rounded=0;exitX=1;exitY=0.5;exitDx=0;exitDy=0;entryX=0;entryY=0.5;entryDx=0;entryDy=0;entryPerimeter=0;" edge="1" parent="1" source="eFsrurNrGwDv3tq9KLRQ-12" target="eFsrurNrGwDv3tq9KLRQ-8">
          <mxGeometry width="50" height="50" relative="1" as="geometry">
            <mxPoint x="410" y="440" as="sourcePoint" />
            <mxPoint x="460" y="390" as="targetPoint" />
          </mxGeometry>
        </mxCell>
        <mxCell id="eFsrurNrGwDv3tq9KLRQ-27" value="Security Policies" style="endArrow=classic;html=1;rounded=0;exitX=0;exitY=0.25;exitDx=0;exitDy=0;exitPerimeter=0;entryX=1;entryY=0.25;entryDx=0;entryDy=0;" edge="1" parent="1" source="eFsrurNrGwDv3tq9KLRQ-8" target="eFsrurNrGwDv3tq9KLRQ-12">
          <mxGeometry width="50" height="50" relative="1" as="geometry">
            <mxPoint x="410" y="440" as="sourcePoint" />
            <mxPoint x="460" y="390" as="targetPoint" />
          </mxGeometry>
        </mxCell>
        <mxCell id="eFsrurNrGwDv3tq9KLRQ-28" value="User Activity" style="endArrow=classic;html=1;rounded=0;exitX=0.25;exitY=1;exitDx=0;exitDy=0;entryX=0.5;entryY=0;entryDx=0;entryDy=0;" edge="1" parent="1" source="eFsrurNrGwDv3tq9KLRQ-15" target="eFsrurNrGwDv3tq9KLRQ-13">
          <mxGeometry width="50" height="50" relative="1" as="geometry">
            <mxPoint x="410" y="440" as="sourcePoint" />
            <mxPoint x="460" y="390" as="targetPoint" />
          </mxGeometry>
        </mxCell>
        <mxCell id="eFsrurNrGwDv3tq9KLRQ-29" value="Audit Logs" style="endArrow=classic;html=1;rounded=0;exitX=0;exitY=0.5;exitDx=0;exitDy=0;entryX=1;entryY=0.5;entryDx=0;entryDy=0;entryPerimeter=0;" edge="1" parent="1" source="eFsrurNrGwDv3tq9KLRQ-13" target="eFsrurNrGwDv3tq9KLRQ-4">
          <mxGeometry width="50" height="50" relative="1" as="geometry">
            <mxPoint x="410" y="440" as="sourcePoint" />
            <mxPoint x="460" y="390" as="targetPoint" />
          </mxGeometry>
        </mxCell>
        <mxCell id="eFsrurNrGwDv3tq9KLRQ-30" value="Activity Records" style="endArrow=classic;html=1;rounded=0;exitX=0.5;exitY=1;exitDx=0;exitDy=0;entryX=0.25;entryY=0;entryDx=0;entryDy=0;" edge="1" parent="1" source="eFsrurNrGwDv3tq9KLRQ-13" target="eFsrurNrGwDv3tq9KLRQ-16">
          <mxGeometry width="50" height="50" relative="1" as="geometry">
            <mxPoint x="410" y="440" as="sourcePoint" />
            <mxPoint x="460" y="390" as="targetPoint" />
          </mxGeometry>
        </mxCell>
        <mxCell id="eFsrurNrGwDv3tq9KLRQ-31" value="Admin Commands" style="endArrow=classic;html=1;rounded=0;exitX=0.5;exitY=0;exitDx=0;exitDy=0;exitPerimeter=0;entryX=0;entryY=1;entryDx=0;entryDy=0;" edge="1" parent="1" source="eFsrurNrGwDv3tq9KLRQ-4" target="eFsrurNrGwDv3tq9KLRQ-10">
          <mxGeometry width="50" height="50" relative="1" as="geometry">
            <mxPoint x="410" y="440" as="sourcePoint" />
            <mxPoint x="460" y="390" as="targetPoint" />
          </mxGeometry>
        </mxCell>
        <mxCell id="eFsrurNrGwDv3tq9KLRQ-32" value="Authentication Result" style="endArrow=classic;html=1;rounded=0;exitX=0;exitY=0.25;exitDx=0;exitDy=0;entryX=1;entryY=0.25;entryDx=0;entryDy=0;entryPerimeter=0;" edge="1" parent="1" source="eFsrurNrGwDv3tq9KLRQ-10" target="eFsrurNrGwDv3tq9KLRQ-2">
          <mxGeometry width="50" height="50" relative="1" as="geometry">
            <mxPoint x="410" y="440" as="sourcePoint" />
            <mxPoint x="460" y="390" as="targetPoint" />
          </mxGeometry>
        </mxCell>
        <mxCell id="eFsrurNrGwDv3tq9KLRQ-33" value="Role Assignment" style="endArrow=classic;html=1;rounded=0;exitX=1;exitY=0.25;exitDx=0;exitDy=0;exitPerimeter=0;entryX=0;entryY=0.75;entryDx=0;entryDy=0;" edge="1" parent="1" source="eFsrurNrGwDv3tq9KLRQ-4" target="eFsrurNrGwDv3tq9KLRQ-12">
          <mxGeometry width="50" height="50" relative="1" as="geometry">
            <mxPoint x="410" y="440" as="sourcePoint" />
            <mxPoint x="460" y="390" as="targetPoint" />
          </mxGeometry>
        </mxCell>
        <mxCell id="eFsrurNrGwDv3tq9KLRQ-34" value="" style="rounded=0;whiteSpace=wrap;html=1;fillColor=#f5f5f5;strokeColor=#666666;fontColor=#333333;" vertex="1" parent="1">
          <mxGeometry x="660" y="80" width="180" height="130" as="geometry" />
        </mxCell>
        <mxCell id="eFsrurNrGwDv3tq9KLRQ-35" value="Legend:" style="text;html=1;strokeColor=none;fillColor=none;align=left;verticalAlign=middle;whiteSpace=wrap;rounded=0;fontStyle=1" vertex="1" parent="1">
          <mxGeometry x="670" y="90" width="60" height="20" as="geometry" />
        </mxCell>
        <mxCell id="eFsrurNrGwDv3tq9KLRQ-36" value="" style="shape=ellipse;html=1;dashed=0;whitespace=wrap;aspect=fixed;perimeter=ellipsePerimeter;fillColor=#d5e8d4;strokeColor=#82b366;" vertex="1" parent="1">
          <mxGeometry x="670" y="120" width="20" height="20" as="geometry" />
        </mxCell>
        <mxCell id="eFsrurNrGwDv3tq9KLRQ-37" value="Process" style="text;html=1;strokeColor=none;fillColor=none;align=left;verticalAlign=middle;whiteSpace=wrap;rounded=0;" vertex="1" parent="1">
          <mxGeometry x="700" y="120" width="60" height="20" as="geometry" />
        </mxCell>
        <mxCell id="eFsrurNrGwDv3tq9KLRQ-38" value="" style="html=1;dashed=0;whitespace=wrap;shape=mxgraph.dfd.externalEntity;fillColor=#f5f5f5;strokeColor=#666666;fontColor=#333333;" vertex="1" parent="1">
          <mxGeometry x="670" y="150" width="20" height="20" as="geometry" />
        </mxCell>
        <mxCell id="eFsrurNrGwDv3tq9KLRQ-39" value="External Entity" style="text;html=1;strokeColor=none;fillColor=none;align=left;verticalAlign=middle;whiteSpace=wrap;rounded=0;" vertex="1" parent="1">
          <mxGeometry x="700" y="150" width="90" height="20" as="geometry" />
        </mxCell>
        <mxCell id="eFsrurNrGwDv3tq9KLRQ-40" value="" style="html=1;dashed=0;whitespace=wrap;shape=mxgraph.dfd.dataStore;fillColor=#dae8fc;strokeColor=#6c8ebf;" vertex="1" parent="1">
          <mxGeometry x="670" y="180" width="20" height="20" as="geometry" />
        </mxCell>
        <mxCell id="eFsrurNrGwDv3tq9KLRQ-41" value="Data Store" style="text;html=1;strokeColor=none;fillColor=none;align=left;verticalAlign=middle;whiteSpace=wrap;rounded=0;" vertex="1" parent="1">
          <mxGeometry x="700" y="180" width="70" height="20" as="geometry" />
        </mxCell>
      </root>
    </mxGraphModel>
  </diagram>
</mxfile>
